<svg xmlns="http://www.w3.org/2000/svg" viewBox="0 0 64 64" width="64" height="64">
  <circle cx="32" cy="32" r="32" fill="#C8102E"/>
  <path d="M22 14 h20 l-4 18 a6 6 0 0 1-12 0 Z" fill="#FFD700" stroke="#B8860B" stroke-width="1"/>
  <path d="M22 18 Q14 18 14 26 Q14 32 22 32" fill="none" stroke="#FFD700" stroke-width="3" stroke-linecap="round"/>
  <path d="M42 18 Q50 18 50 26 Q50 32 42 32" fill="none" stroke="#FFD700" stroke-width="3" stroke-linecap="round"/>
  <rect x="29" y="32" width="6" height="8" fill="#FFD700" stroke="#B8860B" stroke-width="0.5"/>
  <rect x="23" y="40" width="18" height="4" rx="2" fill="#FFD700" stroke="#B8860B" stroke-width="0.5"/>
  <polygon points="32,18 33.5,22.5 38,22.5 34.5,25 36,29.5 32,27 28,29.5 29.5,25 26,22.5 30.5,22.5" fill="#FFF8DC" opacity="0.9"/>
</svg>
